<?xml version="1.0" encoding="utf-8"?>
<!-- Generator: Adobe Illustrator 19.0.0, SVG Export Plug-In . SVG Version: 6.00 Build 0)  -->
<svg version="1.1" id="Layer_1" xmlns="http://www.w3.org/2000/svg" xmlns:xlink="http://www.w3.org/1999/xlink" x="0px" y="0px"
	 viewBox="0 0 14 16" style="enable-background:new 0 0 14 16;" xml:space="preserve">
<style type="text/css">
	.st0{fill:#9E0B0F;}
	.st1{fill:#ED1C24;}
	.st2{fill:#FFF200;}
	.st3{fill:#E1D600;}
</style>
<g id="XMLID_2_">
	<path id="XMLID_30_" class="st0" d="M1,12.5c-0.1,0-0.3-0.1-0.4-0.1c-0.1-0.1-0.1-0.2-0.1-0.4l0-11c0-0.3,0.2-0.5,0.5-0.5h8
		c0.3,0,0.5,0.2,0.5,0.5l0,11c0,0.3-0.2,0.5-0.5,0.5H1z"/>
	<path id="XMLID_27_" class="st1" d="M9,1L9,1l0,11l-8,0L1,1H9 M9,0H1C0.5,0,0,0.4,0,1l0,11c0,0.6,0.4,1,1,1h8c0.6,0,1-0.4,1-1l0-11
		C10,0.4,9.6,0,9,0L9,0z"/>
</g>
<g id="XMLID_1_">
	<path id="XMLID_25_" class="st2" d="M5,15.5c-0.3,0-0.5-0.2-0.5-0.5V4c0-0.3,0.2-0.5,0.5-0.5h8c0.3,0,0.5,0.2,0.5,0.5v11
		c0,0.3-0.2,0.5-0.5,0.5H5z"/>
	<path id="XMLID_22_" class="st3" d="M13,4v11H5V4H13 M13,3H5C4.4,3,4,3.4,4,4v11c0,0.6,0.4,1,1,1h8c0.6,0,1-0.4,1-1V4
		C14,3.4,13.5,3,13,3L13,3z"/>
</g>
<image style="display:none;overflow:visible;" width="14" height="16" id="XMLID_3_" xlink:href="pro_red_yello_card_ico - Copy.png" >
</image>
<image style="display:none;overflow:visible;" width="14" height="16" id="XMLID_4_" xlink:href="pro_red_yello_card_ico---Copy.png"  transform="matrix(1 0 0 1 0 2.083333e-002)">
</image>
</svg>
