<?xml version="1.0" encoding="utf-8"?>
<!-- Generator: Adobe Illustrator 21.0.1, SVG Export Plug-In . SVG Version: 6.00 Build 0)  -->
<svg version="1.1" id="Layer_1" xmlns="http://www.w3.org/2000/svg" xmlns:xlink="http://www.w3.org/1999/xlink" x="0px" y="0px"
	 viewBox="0 0 17 17" style="enable-background:new 0 0 17 17;" xml:space="preserve">
<style type="text/css">
	.st0{fill:#383E42;}
</style>
<g>
	<g id="XMLID_3_">
		<path class="st0" d="M15.8,4.1C15.7,4,15.7,4,15.8,4.1C15.7,4,15.8,4,15.8,4.1z"/>
		<path class="st0" d="M15,14C15,14,15,14,15,14C15,14,15,14,15,14z"/>
		<path class="st0" d="M14.4,12C14.4,12,14.4,12,14.4,12C14.3,12,14.3,12,14.4,12C14.3,12,14.4,12,14.4,12z"/>
		<path class="st0" d="M11.9,16.3C11.8,16.4,11.8,16.4,11.9,16.3C11.8,16.4,11.8,16.3,11.9,16.3z"/>
		<path class="st0" d="M17,7.9C17,7.9,17,7.9,17,7.9c-0.1-1.4-0.5-2.7-1.2-3.8c0,0,0-0.1,0-0.1c0,0,0,0,0,0
			c-1.2-1.9-3.2-3.3-5.4-3.8C9.7,0.1,9.1,0,8.5,0C7.9,0,7.3,0.1,6.7,0.2h0c0,0,0,0,0,0c-2.3,0.5-4.3,2-5.4,4c0,0,0,0,0,0
			c0,0,0,0,0,0.1c-0.6,1-0.9,2.1-1.1,3.2c0,0,0,0,0,0c0,0,0,0,0,0C0,7.9,0,8.2,0,8.5c0,2.3,0.9,4.3,2.3,5.9c0,0,0,0,0.1,0.1
			c0.8,0.8,1.7,1.5,2.8,1.9c0,0,0,0,0,0c0,0,0,0,0.1,0c0,0,0,0,0,0c1,0.4,2.1,0.7,3.3,0.7c1.2,0,2.3-0.2,3.3-0.7c0,0,0,0,0.1,0
			c1.2-0.5,2.3-1.3,3.1-2.3c0,0,0,0,0,0c0,0,0,0,0.1-0.1c1.2-1.5,2-3.4,2-5.5C17,8.3,17,8.1,17,7.9z M14.9,3.7l-0.6-0.2
			c-1-1.3-2.7-2.2-2.9-2.4c0,0,0,0,0,0L11.1,1C12.6,1.5,13.9,2.5,14.9,3.7z M11.1,1.6c0.4,0.2,1.8,1.1,2.7,2.2
			C14,4.5,14.2,5.6,13.9,6l-2.5,0.7L8.8,4.9l0-2.5C9.2,2.3,10.3,1.8,11.1,1.6z M8.2,2.4l0,2.6L5.7,6.7L3.3,6C3,5.5,3.2,4.4,3.3,3.7
			c1.2-1.3,2.4-1.9,2.7-2C6.5,1.8,7.8,2.1,8.2,2.4z M6,1L5.8,1.2C5.5,1.3,4.2,1.9,2.9,3.3L2.2,3.7C3.1,2.4,4.5,1.5,6,1z M0.5,8.5
			c0-0.1,0-0.3,0-0.4l0.6,0.5c0.1,2.2,0.8,3.2,1.1,3.6C2.1,12.4,2,12.7,2,13.2C1.1,11.8,0.5,10.2,0.5,8.5z M5.1,12.6
			c-0.8-0.1-2-0.3-2.3-0.6c0,0,0,0,0,0c-0.1-0.1-0.9-1-1.1-3.4c0.4-0.7,1.1-1.7,1.5-2l2.4,0.6l0.9,3.1L5.1,12.6z M8.5,16.5
			c-0.9,0-1.7-0.1-2.5-0.4l0.8-0.4c0.4,0,2,0.2,3.3,0l0.9,0.4C10.2,16.3,9.4,16.5,8.5,16.5z M10,15.2c-1.2,0.2-2.7,0-3.1,0
			c-0.2-0.3-1.1-1.5-1.4-2.3l1.4-2.3h3.3l1.5,2.3C11.5,13.4,10.6,14.5,10,15.2z M14.4,12C14.4,12,14.4,12,14.4,12
			C14.3,12,14.3,12,14.4,12c-0.3,0.1-1.3,0.5-2.2,0.6l-1.5-2.3c0.6-1.6,0.9-2.7,1-3.2L14,6.5c0.4,0.5,1.3,1.5,1.5,2
			C15.5,8.9,15.4,10.7,14.4,12z M15,13.1c0-0.3,0-0.5-0.1-0.6c0-0.1,0-0.2-0.1-0.3c1-1.3,1.2-3,1.2-3.5l0.4-0.3c0,0,0,0.1,0,0.1
			C16.5,10.2,15.9,11.8,15,13.1z"/>
		<path class="st0" d="M5.2,16.4C5.2,16.4,5.2,16.3,5.2,16.4C5.2,16.3,5.2,16.4,5.2,16.4z"/>
		<path class="st0" d="M2.4,14.4C2.4,14.4,2.4,14.4,2.4,14.4C2.4,14.4,2.4,14.4,2.4,14.4z"/>
		<path class="st0" d="M1.2,4.2C1.2,4.2,1.1,4.3,1.2,4.2C1.1,4.3,1.1,4.2,1.2,4.2z"/>
	</g>
</g>
</svg>
