<?xml version="1.0" encoding="utf-8"?>
<!-- Generator: Adobe Illustrator 19.0.0, SVG Export Plug-In . SVG Version: 6.00 Build 0)  -->
<svg version="1.1" id="Layer_1" xmlns="http://www.w3.org/2000/svg" xmlns:xlink="http://www.w3.org/1999/xlink" x="0px" y="0px"
	 viewBox="-297 388 17 17" style="enable-background:new -297 388 17 17;" xml:space="preserve">
<style type="text/css">
	.st0{display:none;}
	.st1{display:inline;}
	.st2{fill:#383E42;}
	.st3{display:inline;fill:#FF0000;}
	.st4{font-family:'Roboto-Bold';}
	.st5{font-size:16px;}
	.st6{display:none;fill:#FF0000;}
	.st7{fill:none;stroke:#ED1C24;stroke-width:1.5;stroke-miterlimit:10;}
</style>
<g id="goal_x5F_p" class="st0">
	<g class="st1">
		<g id="XMLID_3_">
			<path class="st2" d="M-281.2,392.1C-281.3,392-281.3,392-281.2,392.1C-281.3,392-281.2,392-281.2,392.1z"/>
			<path class="st2" d="M-282,402L-282,402L-282,402z"/>
			<path class="st2" d="M-282.6,400L-282.6,400C-282.7,400-282.7,400-282.6,400C-282.7,400-282.6,400-282.6,400z"/>
			<path class="st2" d="M-285.1,404.3C-285.2,404.4-285.2,404.4-285.1,404.3C-285.2,404.4-285.2,404.3-285.1,404.3z"/>
			<path class="st2" d="M-280,395.9L-280,395.9c-0.1-1.4-0.5-2.7-1.2-3.8V392l0,0c-1.2-1.9-3.2-3.3-5.4-3.8
				c-0.7-0.1-1.3-0.2-1.9-0.2s-1.2,0.1-1.8,0.2l0,0l0,0c-2.3,0.5-4.3,2-5.4,4l0,0c0,0,0,0,0,0.1c-0.6,1-0.9,2.1-1.1,3.2l0,0l0,0
				c-0.2,0.4-0.2,0.7-0.2,1c0,2.3,0.9,4.3,2.3,5.9c0,0,0,0,0.1,0.1c0.8,0.8,1.7,1.5,2.8,1.9l0,0c0,0,0,0,0.1,0l0,0
				c1,0.4,2.1,0.7,3.3,0.7c1.2,0,2.3-0.2,3.3-0.7c0,0,0,0,0.1,0c1.2-0.5,2.3-1.3,3.1-2.3l0,0c0,0,0,0,0.1-0.1c1.2-1.5,2-3.4,2-5.5
				C-280,396.3-280,396.1-280,395.9z M-282.1,391.7l-0.6-0.2c-1-1.3-2.7-2.2-2.9-2.4l0,0l-0.3-0.1
				C-284.4,389.5-283.1,390.5-282.1,391.7z M-285.9,389.6c0.4,0.2,1.8,1.1,2.7,2.2c0.2,0.7,0.4,1.8,0.1,2.2l-2.5,0.7l-2.6-1.8v-2.5
				C-287.8,390.3-286.7,389.8-285.9,389.6z M-288.8,390.4v2.6l-2.5,1.7l-2.4-0.7c-0.3-0.5-0.1-1.6,0-2.3c1.2-1.3,2.4-1.9,2.7-2
				C-290.5,389.8-289.2,390.1-288.8,390.4z M-291,389l-0.2,0.2c-0.3,0.1-1.6,0.7-2.9,2.1l-0.7,0.4C-293.9,390.4-292.5,389.5-291,389
				z M-296.5,396.5c0-0.1,0-0.3,0-0.4l0.6,0.5c0.1,2.2,0.8,3.2,1.1,3.6c-0.1,0.2-0.2,0.5-0.2,1
				C-295.9,399.8-296.5,398.2-296.5,396.5z M-291.9,400.6c-0.8-0.1-2-0.3-2.3-0.6l0,0c-0.1-0.1-0.9-1-1.1-3.4c0.4-0.7,1.1-1.7,1.5-2
				l2.4,0.6l0.9,3.1L-291.9,400.6z M-288.5,404.5c-0.9,0-1.7-0.1-2.5-0.4l0.8-0.4c0.4,0,2,0.2,3.3,0l0.9,0.4
				C-286.8,404.3-287.6,404.5-288.5,404.5z M-287,403.2c-1.2,0.2-2.7,0-3.1,0c-0.2-0.3-1.1-1.5-1.4-2.3l1.4-2.3h3.3l1.5,2.3
				C-285.5,401.4-286.4,402.5-287,403.2z M-282.6,400L-282.6,400C-282.7,400-282.7,400-282.6,400c-0.3,0.1-1.3,0.5-2.2,0.6l-1.5-2.3
				c0.6-1.6,0.9-2.7,1-3.2l2.3-0.6c0.4,0.5,1.3,1.5,1.5,2C-281.5,396.9-281.6,398.7-282.6,400z M-282,401.1c0-0.3,0-0.5-0.1-0.6
				c0-0.1,0-0.2-0.1-0.3c1-1.3,1.2-3,1.2-3.5l0.4-0.3v0.1C-280.5,398.2-281.1,399.8-282,401.1z"/>
			<path class="st2" d="M-291.8,404.4C-291.8,404.4-291.8,404.3-291.8,404.4C-291.8,404.3-291.8,404.4-291.8,404.4z"/>
			<path class="st2" d="M-294.6,402.4L-294.6,402.4L-294.6,402.4z"/>
			<path class="st2" d="M-295.8,392.2C-295.8,392.2-295.9,392.3-295.8,392.2C-295.9,392.3-295.9,392.2-295.8,392.2z"/>
		</g>
	</g>
	<text transform="matrix(1 0 0 1 -289.5475 405.0992)" class="st3 st4 st5">P</text>
</g>
<g id="goal_x5F_p_1_">
	<g>
		<g id="XMLID_1_">
			<path class="st2" d="M-281.2,392.1C-281.3,392-281.3,392-281.2,392.1C-281.3,392-281.2,392-281.2,392.1z"/>
			<path class="st2" d="M-282,402L-282,402L-282,402z"/>
			<path class="st2" d="M-282.6,400L-282.6,400C-282.7,400-282.7,400-282.6,400C-282.7,400-282.6,400-282.6,400z"/>
			<path class="st2" d="M-285.1,404.3C-285.2,404.4-285.2,404.4-285.1,404.3C-285.2,404.4-285.2,404.3-285.1,404.3z"/>
			<path class="st2" d="M-280,395.9L-280,395.9c-0.1-1.4-0.5-2.7-1.2-3.8V392l0,0c-1.2-1.9-3.2-3.3-5.4-3.8
				c-0.7-0.1-1.3-0.2-1.9-0.2s-1.2,0.1-1.8,0.2l0,0l0,0c-2.3,0.5-4.3,2-5.4,4l0,0c0,0,0,0,0,0.1c-0.6,1-0.9,2.1-1.1,3.2l0,0l0,0
				c-0.2,0.4-0.2,0.7-0.2,1c0,2.3,0.9,4.3,2.3,5.9c0,0,0,0,0.1,0.1c0.8,0.8,1.7,1.5,2.8,1.9l0,0c0,0,0,0,0.1,0l0,0
				c1,0.4,2.1,0.7,3.3,0.7c1.2,0,2.3-0.2,3.3-0.7c0,0,0,0,0.1,0c1.2-0.5,2.3-1.3,3.1-2.3l0,0c0,0,0,0,0.1-0.1c1.2-1.5,2-3.4,2-5.5
				C-280,396.3-280,396.1-280,395.9z M-282.1,391.7l-0.6-0.2c-1-1.3-2.7-2.2-2.9-2.4l0,0l-0.3-0.1
				C-284.4,389.5-283.1,390.5-282.1,391.7z M-285.9,389.6c0.4,0.2,1.8,1.1,2.7,2.2c0.2,0.7,0.4,1.8,0.1,2.2l-2.5,0.7l-2.6-1.8v-2.5
				C-287.8,390.3-286.7,389.8-285.9,389.6z M-288.8,390.4v2.6l-2.5,1.7l-2.4-0.7c-0.3-0.5-0.1-1.6,0-2.3c1.2-1.3,2.4-1.9,2.7-2
				C-290.5,389.8-289.2,390.1-288.8,390.4z M-291,389l-0.2,0.2c-0.3,0.1-1.6,0.7-2.9,2.1l-0.7,0.4C-293.9,390.4-292.5,389.5-291,389
				z M-296.5,396.5c0-0.1,0-0.3,0-0.4l0.6,0.5c0.1,2.2,0.8,3.2,1.1,3.6c-0.1,0.2-0.2,0.5-0.2,1
				C-295.9,399.8-296.5,398.2-296.5,396.5z M-291.9,400.6c-0.8-0.1-2-0.3-2.3-0.6l0,0c-0.1-0.1-0.9-1-1.1-3.4c0.4-0.7,1.1-1.7,1.5-2
				l2.4,0.6l0.9,3.1L-291.9,400.6z M-288.5,404.5c-0.9,0-1.7-0.1-2.5-0.4l0.8-0.4c0.4,0,2,0.2,3.3,0l0.9,0.4
				C-286.8,404.3-287.6,404.5-288.5,404.5z M-287,403.2c-1.2,0.2-2.7,0-3.1,0c-0.2-0.3-1.1-1.5-1.4-2.3l1.4-2.3h3.3l1.5,2.3
				C-285.5,401.4-286.4,402.5-287,403.2z M-282.6,400L-282.6,400C-282.7,400-282.7,400-282.6,400c-0.3,0.1-1.3,0.5-2.2,0.6l-1.5-2.3
				c0.6-1.6,0.9-2.7,1-3.2l2.3-0.6c0.4,0.5,1.3,1.5,1.5,2C-281.5,396.9-281.6,398.7-282.6,400z M-282,401.1c0-0.3,0-0.5-0.1-0.6
				c0-0.1,0-0.2-0.1-0.3c1-1.3,1.2-3,1.2-3.5l0.4-0.3v0.1C-280.5,398.2-281.1,399.8-282,401.1z"/>
			<path class="st2" d="M-291.8,404.4C-291.8,404.4-291.8,404.3-291.8,404.4C-291.8,404.3-291.8,404.4-291.8,404.4z"/>
			<path class="st2" d="M-294.6,402.4L-294.6,402.4L-294.6,402.4z"/>
			<path class="st2" d="M-295.8,392.2C-295.8,392.2-295.9,392.3-295.8,392.2C-295.9,392.3-295.9,392.2-295.8,392.2z"/>
		</g>
	</g>
	<text transform="matrix(1 0 0 1 -288.8766 405.2896)" class="st6 st4 st5">P</text>
	<line class="st7" x1="-281.2" y1="389.3" x2="-295.6" y2="403.8"/>
</g>
<image style="display:none;overflow:visible;" width="19" height="19" xlink:href="../goal_p.png"  transform="matrix(0.8997 0 0 0.8997 -297.0313 388)">
</image>
<image style="display:none;overflow:visible;" width="19" height="19" xlink:href="../goal-c.png"  transform="matrix(0.8947 0 0 0.8947 -297.0162 387.9801)">
</image>
</svg>
