<?xml version="1.0" encoding="utf-8"?>
<!-- Generator: Adobe Illustrator 19.0.0, SVG Export Plug-In . SVG Version: 6.00 Build 0)  -->
<svg version="1.1" id="Layer_1" xmlns="http://www.w3.org/2000/svg" xmlns:xlink="http://www.w3.org/1999/xlink" x="0px" y="0px"
	 viewBox="-297 388 17 17" style="enable-background:new -297 388 17 17;" xml:space="preserve">
<style type="text/css">
	.st0{fill:#383E42;}
	.st1{fill:#FF0000;}
	.st2{font-family:'Roboto-Bold';}
	.st3{font-size:16px;}
	.st4{display:none;}
	.st5{display:inline;}
	.st6{display:inline;fill:none;stroke:#ED1C24;stroke-width:1.5;stroke-miterlimit:10;}
</style>
<g id="goal_x5F_p">
	<g>
		<g id="XMLID_3_">
			<path class="st0" d="M-281.2,392.1C-281.3,392-281.3,392-281.2,392.1C-281.3,392-281.2,392-281.2,392.1z"/>
			<path class="st0" d="M-282,402L-282,402L-282,402z"/>
			<path class="st0" d="M-282.6,400L-282.6,400C-282.7,400-282.7,400-282.6,400C-282.7,400-282.6,400-282.6,400z"/>
			<path class="st0" d="M-285.1,404.3C-285.2,404.4-285.2,404.4-285.1,404.3C-285.2,404.4-285.2,404.3-285.1,404.3z"/>
			<path class="st0" d="M-280,395.9L-280,395.9c-0.1-1.4-0.5-2.7-1.2-3.8V392l0,0c-1.2-1.9-3.2-3.3-5.4-3.8
				c-0.7-0.1-1.3-0.2-1.9-0.2s-1.2,0.1-1.8,0.2l0,0l0,0c-2.3,0.5-4.3,2-5.4,4l0,0c0,0,0,0,0,0.1c-0.6,1-0.9,2.1-1.1,3.2l0,0l0,0
				c-0.2,0.4-0.2,0.7-0.2,1c0,2.3,0.9,4.3,2.3,5.9c0,0,0,0,0.1,0.1c0.8,0.8,1.7,1.5,2.8,1.9l0,0c0,0,0,0,0.1,0l0,0
				c1,0.4,2.1,0.7,3.3,0.7c1.2,0,2.3-0.2,3.3-0.7c0,0,0,0,0.1,0c1.2-0.5,2.3-1.3,3.1-2.3l0,0c0,0,0,0,0.1-0.1c1.2-1.5,2-3.4,2-5.5
				C-280,396.3-280,396.1-280,395.9z M-282.1,391.7l-0.6-0.2c-1-1.3-2.7-2.2-2.9-2.4l0,0l-0.3-0.1
				C-284.4,389.5-283.1,390.5-282.1,391.7z M-285.9,389.6c0.4,0.2,1.8,1.1,2.7,2.2c0.2,0.7,0.4,1.8,0.1,2.2l-2.5,0.7l-2.6-1.8v-2.5
				C-287.8,390.3-286.7,389.8-285.9,389.6z M-288.8,390.4v2.6l-2.5,1.7l-2.4-0.7c-0.3-0.5-0.1-1.6,0-2.3c1.2-1.3,2.4-1.9,2.7-2
				C-290.5,389.8-289.2,390.1-288.8,390.4z M-291,389l-0.2,0.2c-0.3,0.1-1.6,0.7-2.9,2.1l-0.7,0.4C-293.9,390.4-292.5,389.5-291,389
				z M-296.5,396.5c0-0.1,0-0.3,0-0.4l0.6,0.5c0.1,2.2,0.8,3.2,1.1,3.6c-0.1,0.2-0.2,0.5-0.2,1
				C-295.9,399.8-296.5,398.2-296.5,396.5z M-291.9,400.6c-0.8-0.1-2-0.3-2.3-0.6l0,0c-0.1-0.1-0.9-1-1.1-3.4c0.4-0.7,1.1-1.7,1.5-2
				l2.4,0.6l0.9,3.1L-291.9,400.6z M-288.5,404.5c-0.9,0-1.7-0.1-2.5-0.4l0.8-0.4c0.4,0,2,0.2,3.3,0l0.9,0.4
				C-286.8,404.3-287.6,404.5-288.5,404.5z M-287,403.2c-1.2,0.2-2.7,0-3.1,0c-0.2-0.3-1.1-1.5-1.4-2.3l1.4-2.3h3.3l1.5,2.3
				C-285.5,401.4-286.4,402.5-287,403.2z M-282.6,400L-282.6,400C-282.7,400-282.7,400-282.6,400c-0.3,0.1-1.3,0.5-2.2,0.6l-1.5-2.3
				c0.6-1.6,0.9-2.7,1-3.2l2.3-0.6c0.4,0.5,1.3,1.5,1.5,2C-281.5,396.9-281.6,398.7-282.6,400z M-282,401.1c0-0.3,0-0.5-0.1-0.6
				c0-0.1,0-0.2-0.1-0.3c1-1.3,1.2-3,1.2-3.5l0.4-0.3v0.1C-280.5,398.2-281.1,399.8-282,401.1z"/>
			<path class="st0" d="M-291.8,404.4C-291.8,404.4-291.8,404.3-291.8,404.4C-291.8,404.3-291.8,404.4-291.8,404.4z"/>
			<path class="st0" d="M-294.6,402.4L-294.6,402.4L-294.6,402.4z"/>
			<path class="st0" d="M-295.8,392.2C-295.8,392.2-295.9,392.3-295.8,392.2C-295.9,392.3-295.9,392.2-295.8,392.2z"/>
		</g>
	</g>
	<text transform="matrix(1 0 0 1 -289.5475 405.0992)" class="st1 st2 st3">P</text>
</g>
<g id="goal_x5F_p_1_" class="st4">
	<g class="st5">
		<g id="XMLID_1_">
			<path class="st0" d="M-578.2,780.1C-578.3,780-578.3,780-578.2,780.1C-578.3,780-578.2,780-578.2,780.1z"/>
			<path class="st0" d="M-579,790L-579,790L-579,790z"/>
			<path class="st0" d="M-579.6,788L-579.6,788C-579.7,788-579.7,788-579.6,788C-579.7,788-579.6,788-579.6,788z"/>
			<path class="st0" d="M-582.1,792.3C-582.2,792.4-582.2,792.4-582.1,792.3C-582.2,792.4-582.2,792.3-582.1,792.3z"/>
			<path class="st0" d="M-577,783.9L-577,783.9c-0.1-1.4-0.5-2.7-1.2-3.8V780l0,0c-1.2-1.9-3.2-3.3-5.4-3.8
				c-0.7-0.1-1.3-0.2-1.9-0.2s-1.2,0.1-1.8,0.2l0,0l0,0c-2.3,0.5-4.3,2-5.4,4l0,0c0,0,0,0,0,0.1c-0.6,1-0.9,2.1-1.1,3.2l0,0l0,0
				c-0.2,0.4-0.2,0.7-0.2,1c0,2.3,0.9,4.3,2.3,5.9c0,0,0,0,0.1,0.1c0.8,0.8,1.7,1.5,2.8,1.9l0,0c0,0,0,0,0.1,0l0,0
				c1,0.4,2.1,0.7,3.3,0.7c1.2,0,2.3-0.2,3.3-0.7c0,0,0,0,0.1,0c1.2-0.5,2.3-1.3,3.1-2.3l0,0c0,0,0,0,0.1-0.1c1.2-1.5,2-3.4,2-5.5
				C-577,784.3-577,784.1-577,783.9z M-579.1,779.7l-0.6-0.2c-1-1.3-2.7-2.2-2.9-2.4l0,0l-0.3-0.1
				C-581.4,777.5-580.1,778.5-579.1,779.7z M-582.9,777.6c0.4,0.2,1.8,1.1,2.7,2.2c0.2,0.7,0.4,1.8,0.1,2.2l-2.5,0.7l-2.6-1.8v-2.5
				C-584.8,778.3-583.7,777.8-582.9,777.6z M-585.8,778.4v2.6l-2.5,1.7l-2.4-0.7c-0.3-0.5-0.1-1.6,0-2.3c1.2-1.3,2.4-1.9,2.7-2
				C-587.5,777.8-586.2,778.1-585.8,778.4z M-588,777l-0.2,0.2c-0.3,0.1-1.6,0.7-2.9,2.1l-0.7,0.4C-590.9,778.4-589.5,777.5-588,777
				z M-593.5,784.5c0-0.1,0-0.3,0-0.4l0.6,0.5c0.1,2.2,0.8,3.2,1.1,3.6c-0.1,0.2-0.2,0.5-0.2,1
				C-592.9,787.8-593.5,786.2-593.5,784.5z M-588.9,788.6c-0.8-0.1-2-0.3-2.3-0.6l0,0c-0.1-0.1-0.9-1-1.1-3.4c0.4-0.7,1.1-1.7,1.5-2
				l2.4,0.6l0.9,3.1L-588.9,788.6z M-585.5,792.5c-0.9,0-1.7-0.1-2.5-0.4l0.8-0.4c0.4,0,2,0.2,3.3,0l0.9,0.4
				C-583.8,792.3-584.6,792.5-585.5,792.5z M-584,791.2c-1.2,0.2-2.7,0-3.1,0c-0.2-0.3-1.1-1.5-1.4-2.3l1.4-2.3h3.3l1.5,2.3
				C-582.5,789.4-583.4,790.5-584,791.2z M-579.6,788L-579.6,788C-579.7,788-579.7,788-579.6,788c-0.3,0.1-1.3,0.5-2.2,0.6l-1.5-2.3
				c0.6-1.6,0.9-2.7,1-3.2l2.3-0.6c0.4,0.5,1.3,1.5,1.5,2C-578.5,784.9-578.6,786.7-579.6,788z M-579,789.1c0-0.3,0-0.5-0.1-0.6
				c0-0.1,0-0.2-0.1-0.3c1-1.3,1.2-3,1.2-3.5l0.4-0.3v0.1C-577.5,786.2-578.1,787.8-579,789.1z"/>
			<path class="st0" d="M-588.8,792.4C-588.8,792.4-588.8,792.3-588.8,792.4C-588.8,792.3-588.8,792.4-588.8,792.4z"/>
			<path class="st0" d="M-591.6,790.4L-591.6,790.4L-591.6,790.4z"/>
			<path class="st0" d="M-592.8,780.2C-592.8,780.2-592.9,780.3-592.8,780.2C-592.9,780.3-592.9,780.2-592.8,780.2z"/>
		</g>
	</g>
	<text transform="matrix(1 0 0 1 -585.8766 793.2896)" class="st2 st3" style="fill:#FF0000;enable-background:new    ;">P</text>
	<line class="st6" x1="-578.2" y1="777.3" x2="-592.6" y2="791.8"/>
</g>
<image style="display:none;overflow:visible;enable-background:new    ;" width="19" height="19" xlink:href="../goal_p.png"  transform="matrix(0.8997 0 0 0.8997 -594.0313 776)">
</image>
<image style="display:none;overflow:visible;enable-background:new    ;" width="19" height="19" xlink:href="../goal-c.png"  transform="matrix(0.8947 0 0 0.8947 -594.0162 775.9801)">
</image>
</svg>
