<?xml version="1.0" standalone="no"?>
<!DOCTYPE svg PUBLIC "-//W3C//DTD SVG 1.1//EN" "http://www.w3.org/Graphics/SVG/1.1/DTD/svg11.dtd">
<svg xmlns="http://www.w3.org/2000/svg">
<metadata>Generated by Fontastic.me</metadata>
<defs>
<font id="spinsporticons" horiz-adv-x="512">
<font-face font-family="spinsporticons" units-per-em="512" ascent="480" descent="-32"/>
<missing-glyph horiz-adv-x="512" />

<glyph glyph-name="oddsup" unicode="&#57350;" d="M413 98c85 0 111 50 54 110l-178 191c-18 20-48 20-66 0l-178-191c-56-60-31-110 54-110z"/>
<glyph glyph-name="oddsdown" unicode="&#57351;" d="M99 414c-85 0-111-50-54-110l178-191c18-20 48-20 66 0l178 191c56 60 31 110-54 110z"/>
<glyph glyph-name="mybets" unicode="&#57352;" d="M136 336l0-27 27 0 0 27z m54 0l0-27 186 0 0 27z m-54-53l0-27 27 0 0 27z m54 0l0-27 186 0 0 27z m-54-54l0-27 27 0 0 27z m54 0l0-27 186 0 0 27z m-54-53l0-27 27 0 0 27z m54 0l0-27 186 0 0 27z m-54-54l0-27 27 0 0 27z m54 0l0-27 186 0 0 27z m-134 375l0-482 402 0 0 389-95 93z m39-41l241 0 0-80 80 0 0-320-321 0c0 0 0 400 0 400z"/>
<glyph glyph-name="player-opencontrols" unicode="&#57353;" d="M105 105l302 0 0 31-302 0z m0 61l302 0 0 30-302 0z m151 226l-120-113 40-38 80 75 80-75 40 38z m151 105l-302 0c-49 0-90-41-90-90l0-302c0-49 41-90 90-90l302 0c49 0 90 41 90 90l0 302c0 49-41 90-90 90z m30-392c0-16-14-30-30-30l-302 0c-16 0-30 14-30 30l0 302c0 16 14 30 30 30l302 0c16 0 30-14 30-30z"/>
<glyph glyph-name="player-play" unicode="&#57354;" d="M181 379l0-248 212 125z m-166-123c0-133 108-241 241-241 133 0 241 108 241 241 0 133-108 241-241 241-133 0-241-108-241-241z m35 0c0 114 92 206 206 206 114 0 206-92 206-206 0-114-92-206-206-206-114 0-206 92-206 206z"/>
<glyph glyph-name="player-unmuted" unicode="&#57355;" d="M407 256c0-56-40-102-91-116l0 65c18 10 30 30 30 53 0 22-12 42-30 51l0 63c51-14 91-60 91-116z m-181-120l0 240-60-60-61 0c-16 0-30-13-30-30l0-60c0-17 14-30 30-30l61 0z m-121 0c-49 0-90 40-90 90l0 60c0 50 41 90 90 90l31 0 150 121 0-482-150 121z m211-113l0 63c70 25 121 92 121 170 0 78-51 145-121 170l0 63c104-27 181-120 181-233 0-113-77-206-181-233z"/>
<glyph glyph-name="streamingavailable" unicode="&#57357;" d="M69 95l375 0 0-54-375 0z m375 376l-375 0 0-1c-30 0-54-24-54-53l0-241c0-30 24-54 54-54l375 0c30 0 54 24 54 54l0 241c0 30-24 54-54 54z m0-295l-375 0 0 241 375 0z m-257 145l-29-42 93-68 103 152-41 29-74-110z"/>
<glyph glyph-name="streaming" unicode="&#57358;" d="M69 95l0-54 375 0 0 54z m133 295l0-187 161 94z m-133 80c-30 0-54-24-54-53l0-241c0-30 24-54 54-54l375 0c30 0 54 24 54 54l0 241c0 30-24 54-54 54l-375 0z m0-53l375 0 0-241-375 0z"/>
<glyph glyph-name="plus" unicode="&#57360;" d="M0 307l0-102 205 0 0-205 102 0 0 205 205 0 0 102-205 0 0 205-102 0 0-205z"/>
<glyph glyph-name="os-android" unicode="&#57361;" d="M318 420c6 0 12-6 12-13 0-8-6-12-12-12-6 0-14 6-14 13 2 8 8 12 14 12z m-124 0c6 0 12-6 12-13 0-8-6-12-12-12-6 0-13 6-13 13 0 8 6 12 13 12z m-22 77l22-41c-40-21-69-60-69-107l264 0c0 47-29 86-70 107l23 41c0 0 1 1-2 3-1 1-3 0-3 0l-22-41c-18 9-38 14-57 14-20 0-41-5-58-12l-22 40c0 0-2 2-3 2-5-3-3-6-3-6z m-49-161l0-202c0-11 13-23 23-23l32 0 0-69c0-18 13-31 28-31 17 0 29 15 29 31l0 69 45 0 0-69c0-18 14-31 29-31 16 0 28 15 28 31l0 69 32 0c10 0 23 14 23 23l0 202z m-43 4c-15 0-29-15-29-31l0-121c0-18 14-31 29-31 16 0 28 15 28 31l0 121c0 18-12 31-28 31z m352 0c-16 0-28-15-28-31l0-121c0-18 13-31 28-31 15 0 29 15 29 31l0 121c0 18-14 31-29 31z"/>
<glyph glyph-name="empty-octagon" unicode="&#57362;" d="M358 502l-203-2-143-144 2-203 145-143 202 2 143 144-2 203z m-18-44l119-117 1-167-117-119-167-1-119 117-1 167 117 119z"/>
<glyph glyph-name="freebetavailable" unicode="&#57365;" d="M164 276l-36-55 119-87 131 194-53 38-95-140z m92-261c133 0 241 108 241 241 0 133-108 241-241 241-133 0-241-108-241-241 0-133 108-241 241-241z m0 426c102 0 185-83 185-185 0-102-83-185-185-185-102 0-185 83-185 185 0 102 83 185 185 185z"/>
<glyph glyph-name="os-apple" unicode="&#57366;" d="M393 241c0 62 51 92 54 93-30 42-75 48-92 48-39 5-76-22-96-22-20 0-51 22-83 22-42 0-81-24-104-61-45-76-10-187 32-249 21-30 47-64 80-63 31 2 43 20 83 20 39 0 49-20 82-20 35 0 56 30 77 60 24 35 35 68 35 71 0 2-66 26-68 101z m-63 182c18 21 28 50 25 78-25-1-55-16-73-37-17-18-31-48-28-75 29-2 58 13 76 34z"/>
<glyph glyph-name="promotions" unicode="&#57367;" d="M360 90l-20 115 83 81-116 17-51 104-51-104-116-17 83-81-20-115 102 55z m-104 395l74-151 167-24-121-117 29-166-149 78-149-78 29 166-121 117 167 24z"/>
<glyph glyph-name="search" unicode="&#57368;" d="M205 175c-72 0-131 58-131 131 0 72 60 131 131 131 71 0 131-59 131-131 0-73-59-131-131-131z m280-92l-116 116c-2 1-3 3-5 3 20 30 32 65 32 104 0 105-86 191-191 191-106 0-190-86-190-191 0-106 86-192 191-192 38 0 74 12 104 32 2-1 2-3 3-4l116-116c8-8 18-12 29-12 10 0 21 4 28 12 14 16 14 40-1 57z"/>
<glyph glyph-name="os-windows" unicode="&#57369;" d="M209 455l-191-27 0-157 190 0 0 184z m-191-210l0-161 190-27 0 188z m214-191l262-39 0 230-262 0z m262 217l0 226-262-39 0-187z"/>
<glyph glyph-name="hamburger" unicode="&#57370;" d="M31 297l450 0 0-82-450 0z m0 143l450 0 0-82-450 0z m0-286l450 0 0-82-450 0z"/>
<glyph glyph-name="padlock" unicode="&#57374;" d="M80 304c-18 0-32-15-32-31l0-225c0-18 15-31 32-31l354 0c18 0 31 15 31 31l0 225c0 18-15 31-31 31l-17 0 0 32c0 89-72 161-161 161-89 0-161-72-161-161l0-32z m289 0l-226 0 0 32c0 62 50 113 113 113 63 0 113-50 113-113z m-145-96c0 18 15 31 32 31 17 0 32-15 32-31 0-12-6-23-17-27l0-70-32 0 0 70c-9 4-15 15-15 27z"/>
<glyph glyph-name="self-exclude" unicode="&#57375;" d="M126 285l0-58 260 0 0 58z m230 217l-203-2-143-144 2-203 144-143 203 2 143 144-2 203z m-18-44l119-117 1-167-117-119-167-1-119 117-1 167 117 119z"/>
<glyph glyph-name="settings" unicode="&#57376;" d="M221 289c-19 0-34 15-34 35 0 19 15 34 34 34 20 0 35-15 35-34 2-20-15-35-35-35z m0 110c-43 0-78-35-78-77 0-42 35-77 78-77 43 0 79 35 79 77 0 42-35 77-79 77z m148-110l-18 0c-3-10-8-21-14-30l17-17c10-10 10-28 0-39l-11-10c-10-11-28-11-40 0l-18 16c-9-6-20-9-32-12l0-18c0-15-12-27-29-27l-13 0c-15 0-29 12-29 27l0 18c-10 3-21 8-31 12l-18-16c-11-11-29-11-41 0l-11 10c-10 11-10 29 0 39l17 17c-6 9-11 20-14 30l-12 0c-15 0-27 12-27 27l0 15c0 15 12 27 29 27l18 0c3 11 7 21 12 31l-17 16c-10 11-10 29 0 39l11 9c10 11 28 11 41 0l15-16c10 6 21 10 31 13l0 20c0 15 12 27 29 27l13 0c15 0 29-12 29-27l0-18c12-3 23-8 32-14l16 17c11 10 29 10 41 0l10-9c11-11 11-29 0-39l-16-17c6-9 9-20 12-30l18 0c15 0 29-12 29-27l0-14c0-18-12-30-29-30z m12-208c-9 0-17 8-17 17 0 9 8 16 17 16 9 0 17-7 17-16 1-9-6-17-17-17z m0 55c-21 0-38-17-38-37 0-19 17-36 38-36 21 0 38 17 38 36 0 20-15 37-38 37z m72-55l-9 0c-1-4-3-10-6-15l9-7c6-5 6-14 0-20l-4-4c-6-5-15-5-21 0l-9 7c-5-3-9-4-15-6l0-9c0-7-6-13-14-13l-8 0c-7 0-13 6-13 13l0 9c-6 2-11 3-15 6l-9-7c-6-5-14-5-20 0l-3 4c-6 6-6 14 0 20l9 7c-3 5-4 9-6 15l-9 0c-7 0-13 6-13 14l0 6c0 7 6 13 13 13l9 0c2 5 3 11 6 16l-9 7c-6 5-6 14 0 20l5 4c6 6 13 6 19 0l8-7c4 3 10 4 15 6l0 9c0 7 6 13 13 13l8 0c8 0 14-6 14-13l0-9c6-2 10-3 15-6l7 7c6 6 14 6 20 0l4-4c6-5 6-14 0-20l-7-7c3-5 4-10 6-16l9 0c7 0 13-6 13-13l0-6c2-8-4-14-12-14z"/>
<glyph glyph-name="pagination" unicode="&#57377;" d="M435 417l-360 0c-33 0-60-29-60-64l0-192c0-35 27-64 60-64l360 0c33 0 60 29 60 64l0 192c0 35-27 64-60 64z"/>
<glyph glyph-name="information" unicode="&#57378;" d="M256 497c-133 0-241-108-241-241 0-133 108-241 241-241 133 0 241 108 241 241 0 133-108 241-241 241z m66-394c-15-5-26-9-34-12-9-3-19-5-30-5-17 0-31 4-40 13-10 8-14 19-14 32 0 5 0 10 1 15 0 5 2 11 3 18l18 63c2 6 3 12 4 17 1 5 2 10 2 15 0 8-2 13-5 16-4 4-10 5-19 5-5 0-9 0-14-2-5-2-9-3-13-4l5 19c12 5 23 9 33 13 11 3 21 5 30 5 17 0 31-4 40-13 9-8 14-18 14-32 0-2-1-7-1-14-1-7-2-13-4-19l-18-63c-1-5-2-10-4-17-1-7-2-11-2-15 0-8 2-14 6-17 4-3 10-4 20-4 4 0 9 0 14 2 6 1 10 3 12 4z m-4 255c-8-8-18-12-29-12-12 0-22 4-30 12-8 8-12 17-12 28 0 10 4 20 12 28 8 7 19 11 30 11 12 0 21-4 29-11 9-8 13-17 13-28 0-11-4-20-13-28z"/>
<glyph glyph-name="changepassword" unicode="&#57380;" d="M68 35l-53-20 20 51z m3 138l102-102-89-32-43 44z m308 313c14 14 35 14 49 0l58-58c14-14 14-35 0-49l-36-36-107 107z m11-155l-12 12-202-203 12-12z m-23 24l-12 12-203-203 12-12z m-24 23l-12 12-201-202 12-12z m-263-191l251 253 109-109-252-251z"/>
<glyph glyph-name="ios6appprompt" unicode="&#57381;" d="M71 318l62 0c18 22 39 40 61 55l-179 0 0-302 413 0 0 144-56-40 0-49-301 0z m260 123l0-69c0 0-183-3-206-179 0 0 78 90 206 74l0-74 166 123z"/>
<glyph glyph-name="social-facebook" unicode="&#57384;" d="M128 336l0-101 75 0 0-220 101 0 0 221 80 0 0 101-80 0 0 36c0 6 2 13 5 17 3 5 7 6 10 6l65 0 0 101-72 0c-15 0-29-3-42-9-14-6-25-15-35-26-9-10-18-22-23-36-6-15-9-30-9-45l0-44-75 0z"/>
<glyph glyph-name="player-closecontrols" unicode="&#57385;" d="M105 407l0-31 302 0 0 31z m0-61l0-30 302 0 0 30z m151-226l120 113-40 38-80-75-80 75-40-38z m151-105c49 0 90 41 90 90l0 302c0 49-41 90-90 90l-302 0c-49 0-90-41-90-90l0-302c0-49 41-90 90-90z m30 392l0-302c0-16-14-30-30-30l-302 0c-16 0-30 14-30 30l0 302c0 16 14 30 30 30l302 0c16 0 30-14 30-30z"/>
<glyph glyph-name="ios7appprompt" unicode="&#57386;" d="M244 410l0-237 26 0 0 237 82-83 18 18-114 108-113-108 18-18z m-229-122l0-229 482 0 0 229-178 0 0-26 152 0 0-178-430 0 0 178 152 0 0 26z"/>
<glyph glyph-name="channel-casino" unicode="&#57387;" d="M116 256c0-78 63-140 140-140 77 0 140 63 140 140 0 77-62 140-140 140-78 0-140-62-140-140z m140 80c0-3 9-14 24-30l30-32c8-9 12-16 15-21 3-8 5-15 5-26 0-7-3-15-9-21-6-6-14-10-24-10-9 0-17 3-24 9-6 6-9 13-9 21l-5 0c0-9 2-18 5-27 3-11 7-18 12-26l-46 0c11 14 17 32 17 53l-5 0c0-8-3-15-9-21-6-6-13-9-24-9-10 0-18 3-24 10-6 6-9 14-9 21 0 9 2 18 5 26 3 6 7 14 15 21l30 32c21 18 30 27 30 30z m-241-80c0-133 108-241 241-241 133 0 241 108 241 241 0 133-108 241-241 241-133 0-241-108-241-241z m20 0c0 17 1 33 6 50l18-11c13-7 30-4 39 8 7 25 21 49 39 67 6 14 0 31-12 38l-20 11c25 22 53 39 85 49l0-19c0-15 10-27 25-30 14 1 27 3 41 3 14 0 27-2 39-5 15 2 26 15 26 30l0 20c31-9 60-27 84-50l-18-10c-14-8-18-25-12-38 18-20 32-42 39-68 9-12 26-15 39-7l18 10c3-15 6-31 6-50 0-18-1-33-6-49l-18 10c-13 8-30 5-39-7-7-26-21-50-39-68-6-14 0-30 12-38l18-10c-24-23-53-39-84-50l0 20c0 15-11 27-26 30-12 0-25-2-39-2-14 0-27 2-39 5-15-2-26-15-26-30l0-20c-31 9-60 27-84 50l18 10c14 8 18 25 12 38-18 20-32 42-39 68-9 12-26 15-39 7l-18-10c-3 15-6 31-6 48z"/>
<glyph glyph-name="channel-inplay" unicode="&#57388;" d="M214 497c-15 0-29-12-29-29l0-28 142 0 0 28c0 15-12 29-29 29z m191-63c-12 10-30 9-39-3l-9-11 77-63 9 10c10 12 9 31-3 41z m-23-235c0 4 0 9 0 13 0 71-57 128-128 128-4 0-9 0-13 0l0-141z m-325 15c0-110 89-199 199-199 110 0 199 89 199 199 0 110-89 199-199 199-110 0-199-89-199-199z m42 0c0 86 70 156 157 156 87 0 157-69 157-156 0-88-71-157-157-157-86 0-157 71-157 157z"/>
<glyph glyph-name="live-chat" unicode="&#57389;" d="M190 167c99 0 179 57 179 128 0 70-80 127-179 127-99 0-180-57-180-127 0-43 29-80 74-103 0-1-36-62-36-62l109 39c11-1 22-2 33-2z m238-15c45 23 74 60 74 103 0 64-64 117-137 126 22-25 36-56 36-89 0-76-71-139-164-155 16-5 43-10 85-10 11 0 22 1 33 2l109-39c0 0-36 61-36 62z"/>
<glyph glyph-name="player-maximise" unicode="&#57390;" d="M15 497l0-211 60 0 0 109 128-128 42 42-128 128 109 0 0 60z m422-271l0-109-128 128-42-42 128-128-109 0 0-60 211 0 0 211z"/>
<glyph glyph-name="social-googleplus" unicode="&#57391;" d="M119 80c-11 3-20 6-29 12-7 4-15 10-19 18-5 7-8 15-9 24-2 18 6 33 22 47 15 13 36 21 61 22 24 2 45-4 63-15 16-10 27-25 28-42 2-18-6-33-22-47-17-13-36-21-60-24-14 0-24 2-35 5z m-24 330c6 16 15 27 30 30 8 1 15 3 23 0 7-2 15-6 21-11 6-4 12-12 16-19 5-8 9-17 12-28 6-21 6-39-1-55-6-17-17-27-32-30-13-5-28 0-42 10-14 11-24 27-29 47-6 21-4 39 2 56z m402-28l-80 0 0 82-25 0 0-82-80 0 0-24 80 0 0-79 24 0 0 79 81 0z m-294-94c6 4 12 10 20 18 7 6 13 15 21 24 6 9 9 22 9 37 0 20-2 35-6 47-3 12-12 21-27 29 0 1 3 3 7 4 6 0 11 2 18 3 6 2 13 2 19 5 4 1 7 4 7 9l-116 0c-21-3-41-8-57-15-15-6-29-17-41-30-12-14-18-33-18-59 0-24 5-44 17-56 10-12 22-21 34-25 15-6 32-9 52-6l0-25c0-3 0-4 1-6 2-1 3-3 5-4 1-2 3-5 4-6 2-3 3-6 3-11l-12 0c-7 0-17-1-27-3-11-1-21-4-32-7-12-3-22-8-33-15-10-8-18-15-25-24-8-11-11-23-11-38 0-23 6-39 18-51 12-12 27-21 42-26 18-6 38-9 61-9 24 0 46 3 67 11 9 3 17 7 26 12 9 4 15 10 22 18 7 7 13 16 16 27 3 10 6 23 6 36 0 17-5 32-12 42-10 12-17 21-28 30-9 9-18 17-27 23-7 6-12 14-12 21 0 8 3 14 9 20z"/>
<glyph glyph-name="social-twitter" unicode="&#57392;" d="M470 396c-9-3-20-4-30-6 19 14 34 32 43 54-9-4-19-9-30-13-10-5-22-8-33-9-9 9-19 16-31 22-13 5-26 8-41 8-14 0-27-3-38-8-12-4-22-12-31-21-9-9-17-19-21-31-5-13-8-26-8-40 0-7 0-15 3-21-41 2-80 11-114 30-37 18-65 43-91 73-9-15-12-32-12-50 0-18 3-33 11-48 7-14 18-26 33-35-9 0-18 2-26 3-7 2-13 5-21 8l0-2c0-24 8-45 23-63 15-18 34-29 57-33-5-2-9-2-12-3-5 0-9 0-14 0-6 0-12 0-18 3 6-18 18-35 35-48 16-14 36-20 57-20-35-29-75-42-122-42l-12 0c-4 0-7 0-12 1 23-15 47-25 72-33 26-7 53-12 80-12 45 0 86 9 121 26 34 16 64 39 87 66 24 27 42 57 54 92 12 33 18 66 18 99l0 12c20 15 36 34 50 52-9-5-18-8-27-11z"/>
<glyph glyph-name="player-minimise" unicode="&#57393;" d="M241 271l0 211-60 0 0-109-124 124-42-42 124-124-109 0 0-60z m30-30l0-211 60 0 0 109 124-124 42 42-124 124 109 0 0 60z"/>
<glyph glyph-name="minus" unicode="&#57394;" d="M0 307l0-102 512 0 0 102"/>
<glyph glyph-name="channel-sports" unicode="&#57395;" d="M214 333l-42-91 70-69 86 48-18 100z m-199-77c0-133 108-241 241-241 133 0 241 108 241 241 0 133-108 241-241 241-133 0-241-108-241-241z m33 15c3 53 27 101 63 136l5-32 86 1 43 70-24 15c12 1 23 3 35 3 32 0 60-6 87-18l-31-15 30-83 78-20 12 39c21-31 32-70 32-111 0-11 0-21-3-32l-20 24-72-48-2-81 44-2c-32-36-75-60-123-67l12 19-70 54-75-25 8-30c-38 18-70 48-91 84l33-4 20 84-54 59z"/>
<glyph glyph-name="myaccount" unicode="&#57397;" d="M238 167l203 202-72 72-203-202z m144 288l73-73-2-1 30 30c17 15 17 42 0 57l-13 14c-17 15-42 15-59 0m-303-374l113 47-67 68z m297-43l-349 0 0 346 245 0 38 41-303 0c-12 0-21-9-21-21l0-386c0-12 9-19 21-19l390 0c12 0 21 9 21 19l0 285-40-41z"/>
<glyph glyph-name="player-muted" unicode="&#57398;" d="M227 136l0 240-60-60-60 0c-17 0-30-13-30-30l0-60c0-17 13-30 30-30l60 0z m-120 0c-51 0-92 40-92 90l0 60c0 50 41 90 92 90l30 0 152 121 0-482-152 121z m390 78l-44-42-43 42-44-42-44 42 44 42-44 42 44 42 44-42 43 42 44-42-44-42z"/>
<glyph glyph-name="statistics" unicode="&#57399;" d="M15 376l0-361 121 0 0 361z m181 121l0-482 120 0 0 482z m180-211l0-271 121 0 0 271z"/>
<glyph glyph-name="rating" unicode="&#57400;" d="M497 310l-167 24-74 151-74-151-167-24 121-117-29-166 149 78 149-78-29 166z"/>
<glyph glyph-name="profile" unicode="&#57401;" d="M100 129l0-43 312 0 0 43z m0 70l0-42 312 0 0 42z m43 170c0-31 25-56 56-56 32 0 57 25 57 56 0 32-25 57-57 57-31 0-56-26-56-57z m155-141c0 39-44 85-99 85-54 0-99-46-99-85z m129-170l-342 0c-7 0-13 6-13 13l0 370c0 7 6 13 13 13l342 0c7 0 13-6 13-13l0-370c0-7-6-13-13-13z m-3 439l-336 0c-26 0-59-33-59-60l0-373c0-27 33-49 59-49l336 0c26 0 58 22 58 49l0 373c0 27-32 60-58 60z"/>
<glyph glyph-name="turbo" unicode="&#57402;" d="M15 256c0-133 108-241 241-241 133 0 241 108 241 241 0 133-108 241-241 241-133 0-241-108-241-241z m49 14c7 95 83 171 178 178l0-76 28 0 0 76c46-3 87-22 118-52l-134-160-1 0c-19 0-34-15-34-34 0-19 15-34 34-34 19 0 34 15 34 34 0 3-1 6-2 9l105 183c33-32 54-75 58-124l-78 0 0-29 78 0c-8-99-91-178-192-178-101 0-184 79-192 179l76 0 0 28z"/>
<glyph glyph-name="timeform" unicode="&#57403;" d="M20 291c-1 0-4 0-7 0-3 0-6 0-8 0-3 0-4 1-4 9 0 7 1 8 3 8 14 0 45 0 59 0 3 0 3-2 3-8 0-8 0-9-2-9-3 0-6 0-10 0-2 0-5 0-6 0-3-2-2-4-2-7 0-38 0-30 0-68 0-2 0-13-13-13-9 0-11 0-11 2 0 37 0 42 0 79-1 3 0 6-2 7z m63-88c-10 0-11 0-11 3 0 43 0 58 0 99 0 3 1 3 11 3 12 0 13 0 13-3 0-28 0-44 0-88 0-2 1-14-13-14z m404 56c-1 2-3 1-4-1-2-9-5-17-7-23-1-1-1-2-5-2-3 0-4 1-5 2-2 6-5 14-7 24-1 1-3 2-4 0 0-13 0-18 0-42 0-2-1-14-12-14-12 0-12 0-12 3 0 44 0 72 0 99 0 3 2 3 12 3 8 0 10-1 12-7 4-8 6-15 10-24 2-6 5-11 6-11 2 0 4 5 6 11 3 8 7 16 10 24 2 6 4 7 14 7 8 0 10 0 10-3 0-41 0-45 0-88 0-2 0-14-11-14-12 0-12 0-12 3z m-326 0c-1 2-4 1-4-1-3-9-5-17-7-23-1-1-2-2-5-2-4 0-5 1-5 2-2 6-5 14-8 24 0 1-2 2-3 0-1-13-1-18-1-42 0-2-1-14-11-14-13 0-12 0-12 3 0 44 0 72 0 99 0 3 2 3 11 3 9 0 11-1 13-7 3-8 6-15 9-24 3-6 5-11 7-11 1 0 4 5 6 11 3 8 6 16 10 24 2 6 4 7 13 7 9 0 11 0 11-3 0-41 0-45 0-88 0-2 0-14-11-14-12 0-13 0-13 3z m57 10c0-1-1-3 1-4 1-1 3-1 5-1 4 0 9 0 11 0 2 0 2-1 2-9 0-7 0-8-2-8-2 0-6 0-10 0-3 0-5 0-6 0-2-1-2-3-2-5l0-16c0-2 0-5 2-6 1 0 4 0 6 0 6 0 16 0 22 0 2 0 2-1 2-9 0-8 0-8-2-8-10 0-34 0-43 0-11 0-11 12-11 18 0 49 0 48 0 82 0 2 1 2 2 3 1 2 3 2 5 2 12 0 34 0 46 0 3 0 3-2 3-8 0-8 0-9-3-9-6 0-18 0-22 0-2 0-5 0-5-1-2-1-2-1-2-3l0-18z m118 22c-7 0-9-5-9-10 0-22 0-26 0-48 0-5 1-11 9-11 8 0 8 6 8 11 0 22 0 26 0 48 0 5-2 10-8 10z m-37-27c-2 0-8 0-12 0-2 0-4 0-5 1-2 1-1 3-1 4l0 17c0 2-1 3 1 5 1 0 3 0 5 0l17 0c4 10 14 17 27 18 2 0 3 0 5 0 4 0 8 0 12-1-5 2-11 4-18 4-7 0-13-2-19-4 0 0-1 0-1 0l-47 0c-3 0-4 0-5-1-1-2-1-2-1-4l0-97c0-3 1-3 10-3 12 0 13 11 13 14 0 18 0 9 0 24 0 2 0 4 2 5 1 1 3 1 6 1 3 0 10 0 12 0 3 0 3 1 3 8 0 8 0 9-4 9z m124-47c0 15 0 4 0 20 0 5-1 8-4 11-4 4-11 5-11 5 0 1 7 2 11 6 2 3 3 7 3 12 0 6 0 4 0 11 0 7-2 14-9 19-7 5-17 7-26 7l-22 0c-3 0-5 0-6-1-1-1-1-2-1-4 7-4 10-10 10-18l0-56c0-14-11-25-32-25-5 0-9 1-13 2 0 0 0 0 0 0 0 0-1 0-1 0-3 1-6 2-8 4 5-6 14-10 26-10 7 0 14 2 19 4 1-1 4-1 10-1 11 0 13 10 13 15 0 19 0 7 0 25 0 2 1 2 9 2 5 0 8-5 8-11l0-28c0-3 1-3 12-3 12 0 12 11 12 14z m-25 54c0-2 0-5-3-7-2-2-6-3-8-3-2 0-3 0-4 1-1 0-1 2-1 3 0 10 0 6 0 22 0 1 0 2 1 2 1 1 2 1 4 1 5 0 7-1 8-2 3-3 3-6 3-9 0-4 0-4 0-8z"/>
<glyph glyph-name="envelope" unicode="&#57404;" d="M38 81l436 0c2 0 5 1 7 2l-153 183-72-60-71 58-154-181c2-1 5-2 7-2z m-28 317l0-285c1-8 4-16 9-21l154 183-160 136c-2-4-3-8-3-13z m12 25l234-197 234 196c-6 6-14 9-23 9l-422 0c-9 0-17-3-23-8z m480-310l0 285c0 5-2 9-3 13l-160-136 154-183c5 5 8 13 9 21z"/>
<glyph glyph-name="phone" unicode="&#57405;" d="M234 368l-36-21-78 131 37 22c7 4 18 2 22-6l61-103c5-8 3-18-6-23z m-94-178c-107 185-50 267-30 282l78-131c-19-11-10-36 1-60 1-1 55-92 55-92 28-38 43-55 61-45l76-128c-22-13-129-21-241 174z m287-147l-36-21-76 128 36 21c8 5 18 3 22-5l60-100c4-8 2-18-6-23z"/>
<glyph glyph-name="inplay" unicode="&#57406;" d="M214 497c-15 0-27-13-27-29l0-28 138 0 0 28c0 16-12 29-27 29z m189-64c-12 10-30 9-39-3l-9-11 74-64 9 11c10 12 8 30-3 40z m-23-234c1 5 1 10 1 15 0 70-56 127-125 127-5 0-9 0-14-1l0-141z m-318 15c0-110 87-199 194-199 107 0 194 89 194 199 0 109-87 198-194 198-107 0-194-89-194-198z m41 0c0 86 69 155 153 155 84 0 153-69 153-155 0-87-69-156-153-156-84 0-153 69-153 156z"/>
<glyph glyph-name="logout" unicode="&#57407;" d="M264 247c-18 0-32 15-32 33l0 184c0 18 14 33 32 33 18 0 33-15 33-33l0-184c0-18-15-33-33-33z m-8-232c-112 0-203 93-203 207 0 88 54 163 130 193l0-74c-39-25-65-69-65-119 0-78 62-141 138-141 76 0 138 63 138 141 0 43-19 81-49 107l0 78c68-33 114-103 114-185 0-114-91-207-203-207z"/>
<glyph glyph-name="betwayplus" unicode="&#57379;" d="M512 327l-185 0 0 185-142 0 0-185-185 0 0-142 185 0 0-185 142 0 0 185 185 0"/>
<glyph glyph-name="openbets" unicode="&#57382;" d="M373 170l0-16 16 0 0 16z m26 0l0-16 72 0 0 16z m-26-26l0-16 16 0 0 16z m26 0l0-16 72 0 0 16z m-26-26l0-15 16 0 0 15z m26 0l0-15 72 0 0 15z m-26-26l0-15 16 0 0 15z m26 0l0-15 72 0 0 15z m-67 149l0-215 180 0 0 164-46 52-134 0z m21-20l103 0 0-36 36 0 0-139-139 0z m-344 15c-5 0-10-4-9-10 15-113 112-200 229-200 29 0 57 5 83 15l0 44c-25-12-53-18-83-18-94 0-173 69-187 159-1 6-6 10-12 10z m452 26c-3 115-89 209-201 224-5 1-10-3-10-9l0-21c0-5 5-11 10-11 89-15 157-91 160-183z m-252 215c0 6-5 10-10 9-41-5-79-21-110-45-4-4-5-10-1-14l15-15c4-4 11-4 15-1 24 17 51 29 81 34 5 1 10 6 10 11z m-150-79c-4 4-10 4-13-1-24-31-40-69-46-109-1-6 4-11 9-11l21 0c6 0 11 5 12 11 4 29 16 57 33 80 3 4 3 11-1 15z m191-162l0 1c6 6 10 15 10 25 0 11-5 21-13 28l-7 131c0 6-5 11-11 11-5 0-10-5-11-11l-8-126c-8-3-15-10-19-19l-126-8c-6 0-10-5-10-11 0-6 4-10 10-11l132-7c6-8 16-13 27-13 10 0 19 4 26 11z"/>
<glyph glyph-name="settledbets" unicode="&#57383;" d="M145 269l-27-40 105-75 120 177-38 27-94-137z m-53 217c-51 0-92-41-92-92l0-276c0-51 41-93 92-93l220 0 0 41-220 0c-28 0-51 23-51 52l0 276c0 28 23 51 51 51l277 0c28 0 51-23 51-51l0-133 41 0 0 133c0 51-41 92-92 92z m282-317l0-15 15 0 0 15z m25 0l0-15 72 0 0 15z m-25-26l0-15 15 0 0 15z m25 0l0-15 72 0 0 15z m-25-25l0-16 15 0 0 16z m25 0l0-16 72 0 0 16z m-25-26l0-15 15 0 0 15z m25 0l0-15 72 0 0 15z m-66 149l0-215 179 0 0 163-46 52z m20-21l103 0 0-36 36 0 0-138-139 0z"/>
<glyph glyph-name="withdrawal" unicode="&#57409;" d="M211 224c31-31 76-44 104-31 30 14 31 55-3 92-35 39-90 54-117 33-26-20-17-62 16-94z m292 110l-160 144c-8 7-20 10-31 8-5-2-11-4-15-8-3-3-6-7-8-12-7-21-19-39-38-56-25-22-57-39-91-57-36-19-74-39-104-66-26-24-44-50-54-80-4-10-1-21 7-29l160-144c8-7 20-10 31-8 5 2 11 4 15 8 3 3 6 7 8 12 7 21 19 39 38 56 25 22 57 39 91 57 36 19 74 39 104 66 26 24 44 50 55 80 3 10 0 21-8 29z m-311-280l-43 39c8 13 21 38 39 38 14 0 27-13 36-22-13-16-25-33-32-55z m-55 50l-54 48c11 12 17 42 17 46 0 18-9 37-35 48l-5 2c55 65 157 87 219 146 12-10 35-18 44-18 15 0 38 12 50 33l0 1 57-51c-11-14-22-39-22-49 0-18 17-38 38-52-55-60-150-82-210-138-11 14-35 25-48 25-11 0-10 0-24-8-6-1-19-19-27-33z m-66 59l-39 35c5 14 11 27 19 38 5-2 10-3 14-6 16-12 21-21 21-32 0-16-10-27-15-35z m219 242c13 15 23 32 30 53l42-38c-8-12-19-29-39-29-16 0-26 8-33 14z m152-57l38-34c-6-17-14-32-24-45-13 11-34 27-34 41 0 13 12 27 20 38z"/>
<glyph glyph-name="deposit" unicode="&#57346;" d="M61 154c-16 0-30 13-30 30l0 144 236 0c27 16 58 25 91 25 39 0 74-12 103-33l0 105c0 34-28 61-62 61l-338 0c-33 0-61-27-61-61l0-241c0-34 28-61 61-61l133 0c-4 10-6 20-8 31l-125 0z m-30 271c0 17 14 31 30 31l338 0c17 0 31-14 31-31l0-15-399 0 0 15z m56-184c-14 0-26-12-26-26l0-5c0-14 12-26 26-26l36 0c14 0 25 12 25 26l0 5c0 14-11 26-25 26z m271 92c-84 0-153-69-153-154 0-85 69-153 153-153 85 0 154 68 154 153 0 85-69 154-154 154z m0-282c-70 0-128 57-128 128 0 71 58 128 128 128 71 0 128-57 128-128 0-71-57-128-128-128z m16 205l-31 0 0-61-61 0 0-31 61 0 0-62 31 0 0 62 61 0 0 31-61 0z"/>
<glyph glyph-name="roulette" unicode="&#57347;" d="M217 274c-5-11-5-25 0-36l-41-42 20-21 42 42c11-5 25-5 36 0l42-42 21 21-42 42c5 11 5 25 0 36l42 42-21 21-42-42c-11 5-25 5-36 0l-42 42-20-21z m25-21c-2 10 7 19 17 17 5-1 10-6 11-11 2-10-7-19-17-17-5 1-10 6-11 11z m0 216l0-57c-18-2-36-7-52-14l-28 50c24 12 51 19 80 21z m28-57l0 57c29-2 56-9 80-21l-28-50c-16 7-34 12-52 14z m-28-312l0-57c-29 2-56 9-80 21l28 50c16-7 34-12 52-14z m28-57l0 57c18 2 36 7 52 14l28-50c-24-12-51-19-80-21z m199 227l-57 0c-2 18-7 36-14 52l49 28c13-24 20-51 22-80z m-57-28l57 0c-2-29-9-56-22-80l-49 28c7 16 12 34 14 52z m-312 28l-57 0c2 29 9 56 21 80l50-28c-7-16-12-34-14-52z m-57-28l57 0c2-18 7-36 14-52l-50-28c-12 24-19 51-21 80z m303 142l29 49c23-15 43-35 58-58l-49-29c-11 15-23 27-38 38z m-180-256l-29-49c-23 15-43 35-58 58l49 29c11-15 23-27 38-38z m218 38l49-29c-15-23-35-43-58-58l-29 49c15 11 27 23 38 38z m-256 180l-49 29c15 23 35 43 58 58l29-49c-15-11-27-23-38-38z m-121-31c-42-187 121-350 308-308 95 21 169 95 190 190 42 187-121 350-308 308-95-21-169-95-190-190z m121-60c-1 71 58 130 129 129 69-1 126-58 127-127 1-71-58-130-129-129-69 1-126 58-127 127z"/>
<glyph glyph-name="more" unicode="&#57410;" d="M195 256c0-34 27-61 61-61 34 0 61 27 61 61 0 34-27 61-61 61-34 0-61-27-61-61z m-195 0c0-34 27-61 61-61 34 0 61 27 61 61 0 34-27 61-61 61-34 0-61-27-61-61z m390 0c0-34 27-61 61-61 34 0 61 27 61 61 0 34-27 61-61 61-34 0-61-27-61-61z"/>
<glyph glyph-name="arrow-left" unicode="&#57345;" d="M95 256l256-256 65 65-190 191 191 191-66 65z"/>
<glyph glyph-name="arrow-right" unicode="&#57348;" d="M161 512l-66-65 191-191-190-191 65-65 256 256z"/>
<glyph glyph-name="arrow-up" unicode="&#57363;" d="M256 417l256-256-65-65-191 190-191-191-65 65z"/>
<glyph glyph-name="back" unicode="&#57364;" d="M95 256l256-256 65 65-190 191 191 191-66 65z"/>
<glyph glyph-name="backtostart" unicode="&#57371;" d="M460 457l-57 55-261-256 261-256 57 55-202 201z m-408 55l0-512 81 0 0 512z"/>
<glyph glyph-name="cross" unicode="&#57396;" d="M256 189l189-189 67 67-189 189 189 189-67 67-189-189-189 189-67-67 189-189-189-189 67-67z"/>
<glyph glyph-name="tick" unicode="&#57359;" d="M55 295l-55-91 245-177 267 397-77 61-216-311z"/>
<glyph glyph-name="dropdownarrows" unicode="&#57349;" d="M256 85l-128 128-43-42 171-171 171 171-43 42z m0 342l128-128 43 42-171 171-171-171 43-42z"/>
<glyph glyph-name="transactionhistory" unicode="&#57411;" d="M512 256c0-106-65-201-163-239-99-38-211-12-282 66l32 30c41-44 97-69 157-69 117 0 212 95 212 212 0 117-95 212-212 212-43 0-85-13-120-37l36-29-130-52 19 139 39-30c77 59 181 70 269 27 88-43 143-132 143-230z m-228 15l-7 144c-1 7-6 12-12 12-6 0-12-5-12-12l-9-138c-10-4-17-12-21-21l-139-9c-6-1-11-6-11-12 0-7 5-12 11-12l145-8c7-9 18-14 30-14 11 0 21 4 28 11l0 0 0 1c8 7 12 17 12 27 0 12-6 23-15 31z"/>
<glyph glyph-name="arrow-down" unicode="&#57344;" d="M256 95l256 256-65 65-191-190-191 191-65-65z"/>
<glyph glyph-name="blackjack" unicode="&#57412;" d="M50 512c-16 0-29-13-29-28l0-456c0-15 13-28 29-28l313 0c15 0 28 13 28 28l0 456c0 15-13 28-28 28z m7-28l299 0c4 0 7-4 7-8l0-440c0-4-3-8-7-8l-299 0c-4 0-7 4-7 8l0 440c0 4 3 8 7 8z m348-456l50 0c4 0 7 4 7 7l0 441c0 4-3 7-7 7l-50 0c0 11-4 21-10 29l67 0c16 0 29-13 29-29l0-455c0-15-13-28-29-28l-67 0c6 7 10 17 10 28z m-145 291c39-51 59-80 59-118 0-32-25-53-49-53-24 0-40 9-48 40-4 13-11 11-9-3 2-17 2-53 29-85l-78 0c26 32 27 68 29 85 2 13-6 16-9 3-8-31-24-40-48-40-24 0-49 21-49 53 0 38 20 67 59 118 36 48 57 93 57 93 0 0 21-45 57-93z m38 119l8-38-15 0z m-29-70l24 0 0 9-7 0 2 13 19 0 3-13-7 0 0-9 24 0 0 9-6 0-17 78-12 0-17-77-6 0z"/>
<glyph glyph-name="calendar" unicode="&#57413;" d="M96 235l0-64 64 0 0 64z m0-86l0-64 64 0 0 64z m171 171l0-64 64 0 0 64z m0-85l0-64 64 0 0 64z m0-86l0-64 64 0 0 64z m-86 171l0-64 64 0 0 64z m0-85l0-64 64 0 0 64z m0-86l0-64 64 0 0 64z m171 171l0-64 64 0 0 64z m0-85l0-64 64 0 0 64z m-341 256l0-491 490 0 0 491-85 0 0-64-85 0 0 64-150 0 0-64-85 0 0 64z m42-128l406 0 0-320-406 0z m64 149l0-64 43 0 0 64z m235 0l0-64 43 0 0 64z"/>
<glyph glyph-name="view" unicode="&#57414;" d="M256 436c-141 0-256-180-256-180 0 0 115-180 256-180 141 0 256 180 256 180 0 0-115 180-256 180z m0-316c-75 0-136 61-136 136 0 75 61 136 136 136 75 0 136-61 136-136 0-75-61-136-136-136z m65 136c0-36-29-65-65-65-36 0-65 29-65 65 0 36 29 65 65 65 36 0 65-29 65-65z"/>
<glyph glyph-name="home" unicode="&#57373;" d="M15 280l30-47 211 159 211-159 30 47-241 181z m72-59l0-194 104 0 0 155 128 0 0-155 104 0 0 193-167 126z m43 264l0-75 69 52 0 23z"/>
<glyph glyph-name="hide" unicode="&#57415;" d="M61 180c-38 40-61 76-61 76 0 0 115 180 256 180 41 0 80-15 114-37l-41-28c-46 29-106 28-151-4-46-32-67-88-54-142z m389 153l-62-44c14-54-7-112-53-144-46-33-108-33-154-2l-41-29c35-22 74-38 116-38 141 0 256 180 256 180 0 0-23 37-62 77z m-194-142c21 0 41 10 53 27 12 17 15 39 9 59l177 125-24 32-177-125c-23 16-53 16-76 0-22-16-32-45-24-71l-181-128 24-32 179 127c12-9 26-14 40-14z"/>
<glyph glyph-name="gamehistory" unicode="&#57416;" d="M394 212c-39 0-69-30-69-68 0-39 31-69 69-69 38 0 69 31 69 69 0 37-31 68-69 68z m32-93c-3-3-7-5-12-5-5 0-8 2-12 5-3 3-4 6-4 10l-3 0c0-4 1-9 3-13 1-5 3-9 5-13l-22 0c5 7 8 16 8 26l-2 0c0-4-1-7-4-10-3-3-7-5-12-5-5 0-9 2-12 5-3 3-4 7-4 11 0 4 0 9 2 12 1 3 4 7 7 11l15 15c10 9 15 13 15 15 0-2 4-7 12-15l14-15c4-5 6-9 8-11 1-3 2-7 2-12 0-4-1-8-4-11z m86 25c0 65-53 118-118 118 0 0 0 0 0 0 0 0 0 0 0 0-65 0-118-53-118-118 0-65 53-118 118-118 63 0 115 50 118 112 0 2 0 4 0 6z m-21-20c-7 3-15 2-20-4-3-12-10-24-19-33-3-7 0-15 6-19l4-2c-10-9-23-17-36-21l0 3c0 8-6 14-13 15-6 0-12 0-19 0-7 0-13 0-19 2-8-1-13-8-13-15l0-5c-14 5-27 12-37 22l5 3c6 4 8 12 6 18-9 10-16 21-20 34-4 6-12 7-19 3l-5-2c-1 6-2 14-2 21 0 7 1 15 3 22l4-3c7-4 15-2 19 4 4 12 11 24 20 33 2 7 0 15-6 18l-5 3c10 10 23 17 36 22l0-5c0-7 6-13 13-14 7 0 13 1 20 1 7 0 13-1 19-2 7 1 13 7 13 15l0 5c14-5 27-12 38-22l-6-3c-7-4-9-12-6-19 9-9 16-21 19-33 5-6 13-7 20-4l5 3c1-7 2-14 2-21 0-8-1-16-3-23z m-149-98l-250 0c-51 0-92 41-92 92l0 276c0 51 41 92 92 92l277 0c51 0 92-41 92-92l0-140c-13 8-26 14-41 17l0 123c0 28-23 51-51 51l-277 0c-28 0-51-23-51-51l0-276c0-29 23-51 51-51l197 0c14-19 31-33 53-41z m-132 196l94 137 38-27-120-177-105 75 26 40z"/>
<glyph glyph-name="cashout" unicode="&#57408;" d="M272 256c0-30 24-54 54-54 29 0 53 24 53 54 0 29-24 53-53 53-30 0-54-23-54-53z m42 207c-44 37-78 37-121 0l-140-141c-43-36-43-96 0-132l140-141c43-37 78-37 121 0l15 13-85 20 188 0-69 13 96 95c43 36 43 96 0 132l-78 78-110 26 171 0-110 22z m-90-207c0 56 45 102 102 102 56 0 101-46 101-102 0-56-45-102-101-102-57 0-102 46-102 102z m-140 0c0 56 46 102 102 102 19 0 37-6 53-15-12-11-21-25-27-40-8 4-17 6-26 6-29 0-53-24-53-53 0-30 24-54 53-54 9 0 18 3 26 7 6-15 15-29 27-40-16-9-34-15-53-15-56 0-102 46-102 102z"/>
<glyph glyph-name="slots" unicode="&#57417;" d="M110 486l-110-144 256-316 256 316-110 144z m146-385l-84 233 168 0z m-73 249l73 105 73-105z m59-256l-198 240 110 0z m-199 256l80 103 23-103z m98 109l95 0-72-105z m129-365l88 240 110 0z m200 256l-104 0 23 103z m-99 109l-23-105-72 105z"/>
<glyph glyph-name="football" unicode="&#57418;" d="M183 470c1 0 1 0 1 0 16-6 31-14 45-24l-27-82-1 0c-5-3-11-5-17-7-22-11-44-22-65-36l-54 32c0 2 0 4 1 5 3 10 7 19 11 29 3 7 7 14 11 21 2 3 5 6 8 8 25 26 56 44 88 55z m233-54c20-20 36-42 47-67-14 10-28 17-44 24-2 0-4 1-7 2l-71 81c0 3 1 7 1 10 27-11 52-28 74-50z m-24-73c-5-14-11-27-16-41l-105-11c-2 2-3 4-4 5l-38 42 1 1-15 15 29 88c2 0 4 1 6 1 16 2 32 4 48 4 9 1 19 1 29 1l73-82c-3-8-5-16-8-23z m22-116l6-12-53-97 0 0c-29-6-57-8-86-9l-52 91c8 15 16 30 24 45 5 10 11 21 16 31l108 11c13-19 26-39 37-60z m2-131c-8-9-18-16-27-23-2 12-4 25-8 37l54 101c15 7 29 14 42 24 2 1 4 3 5 4-4-52-26-103-66-143z m-180-37l-108 19c-12 15-24 32-33 49-3 4-6 8-8 13l43 66 3 0c26-7 53-12 80-16l4-1 51-88c-9-12-18-24-27-36-1-3-3-4-5-6z m1-17c9-5 19-9 29-12-42-2-85 8-123 30l91-17z m-163 112c-11 8-22 16-31 26-15 41-18 85-8 127 5 9 10 18 16 26 1 2 3 5 5 7l55-32 0-1c-1-30 2-59 8-88l0 0-42-66z m-74 102c0-141 115-256 256-256 141 0 256 115 256 256 0 141-115 256-256 256-141 0-256-115-256-256z"/>
<glyph glyph-name="horseracing" unicode="&#57419;" d="M331 338c-11-2-18 0-21 11-2 9-7 16-12 24-2 6-12 18-10 23 4 9 13 5 20 4 7 0 7 3 10-3 1-3 1-6 1-9 0-4 0-9 0-14 0-7 1-10 3-17 2-4 11-15 9-19z m-112-227c-3 9-3 22-2 32 2 12 8 19 6 33 4-2 9-3 13-5 3-2 2-3 4-7 5-7 5-11 7-19 5-18 11-36 17-53 1-3 4-9 3-11-1-4-12 0-15 0-9 3-14 8-20 15-5 7-3 16-13 15z m-19-7c3-6 7-11 11-15 4-3 8-5 11-9 2-2 2-6 4-8 2-3 5-2 7-3 5-3 7-6 10-10 2-3 3-6 5-7 3-3 6-1 7-6 0-3-3-5-2-9 2-5 3-6 9-9 3-1 13-5 16 0 8 10-18 30-18 38 10 0 16-6 25 2-2-2 5 9 3 5 0 1 1 1 2 2 2 4-1 6-2 9-4 21-4 44-4 65 8-1 16 1 24 3 8 3 8 3 17 0 9-3 18-5 26-8 12-4 24-5 36-9 11-4 13-11 10-22-3-12-8-26-14-37-3-3-4-5-6-9-1-2 0-5-3-6-2-1-6 0-9-1-6-3-11-9-13-15-3-13 7-11 16-8 8 3 11 10 18 16 8 8 11 6 13 17 2 11 6 22 10 33 2 7 8 15 7 22 0 22-22 32-36 45-4 3-6 5-8 9-1 1-6 5-6 7 0 2 6 7 8 9 9 12 7 22 11 36 0 4 4 7 5 12 0 4-2 7-2 10 1 11 10 24 15 33 2 6 6 18 11 21 7 3 27-6 33-9l0 2c2-11 12-7 22-12 6-3 10-11 18-11 5 1 14 5 17 8 5 4 2 5 4 10 1 3 4 6 4 9 1 11-20 24-26 33-4 5-10 13-12 20-2 5-1 8-5 12-3 4-8 6-11 9-4 3-5 7-7 9-4 3-8 2-12 3-7 4-10 11-19 11-1-3-5-4-9-4 1-1 1-1 3-2-1 0-2-1-3-2 0 1 6-1 6-2-4-2-12 3-17 3-1 0-20 4-20 4-1-1 1-2 1-3l-2-1 2-2c-1 0-6 1-7 0-1-1-2-4-3-5-2-1-6-1-8-3 0-2 1-5 1-6 0-2-2-1-2-3-1-3 2-7-4-9 1-4 0-11-5-12 4-3-2-11-6-6-1 1-3 11-3 13-1 9-2 17-2 27 0 9-2 17 4 25 1 3 4 4 6 5 0 1 9 5 9 4 1 3 0 6 2 7 0 1 6 4 6 4 1 1 1 3 2 5 0 0 4 6 5 7l0 2c1 2 2 2 5 1 1 1 5 0 5 1 0 2-5 2-6 3-2 4-2 11-4 16-3 7-8 14-16 17-14 5-29-4-35-18-3 4-10 3-15 3-5 0-9 2-15 3-12 2-30 0-42-2-9-2-20-6-25-14-1-3-1-7-3-10-5-13-18-18-18-33-1-11 4-19 10-27 8-10 16-19 26-28 5-4 12-8 18-13-5-2-1-6-3-9 0-2-6-8-8-8-7-2-19 6-26 7-6 0-7-2-12-3-8-2-15 3-23 4-12 3-30 5-43 4-7-1-14-4-20-7-4-3-8-8-12-9-3-1-7 0-10-1-22-2-37-10-44-31-5-17-4-39-19-50-9-6-15-15-25-18-9-4-13-8-15-11 0-1 12-3 3-4-4 0-3 0-4-1 1-2 7-4 8-12 0-1 13-3 15-3 8 0 15 6 23 10 19 11 25 33 32 54 2-25 23-37 31-58 7-17 2-37-5-53-6-15 9-22 20-30 14-11 27-20 38-35 2-2 8-7 8-10 1-2-1-5-2-6 0-1-3-1-4-3-1-3-1-7 0-10 2-5 11-17 17-14 6 2 4 11 4 16 0 11-4 21-5 31 0 4 2 5 0 8-2 3-7 5-10 7-7 5-14 12-20 17-7 6-12 9-15 17-2 6-3 16-2 22 2 16 10 33 15 48 5-4 11-4 15-7 5-2 9-7 13-11 10-9 12-22 13-35 0-9-2-17-3-25-2-12 6-16 14-22z"/>
<glyph glyph-name="thumbs-o-down" unicode="&#57420;" d="M110 384c0 5-2 9-6 13-3 3-8 5-13 5-5 0-9-2-12-5-4-4-6-8-6-13 0-5 2-9 6-13 3-3 7-5 12-5 5 0 10 2 13 5 4 4 6 8 6 13z m329-165c0 7-2 15-6 24-4 8-9 13-16 13 3 3 6 8 8 14 1 5 2 11 2 15 0 14-5 25-15 34 4 7 5 13 5 20 0 7-1 14-5 21-3 7-7 12-13 15 1 6 1 11 1 16 0 16-4 28-14 36-9 8-22 12-39 12l-36 0c-25 0-58-7-98-21-1 0-4-1-8-3-5-2-8-3-10-4-2 0-6-1-10-3-5-1-8-2-11-3-3-1-6-1-10-2-3 0-6-1-9-1l-9 0 0-183 9 0c3 0 7 0 11-2 3-2 7-4 11-8 4-3 8-7 11-10 3-3 7-8 11-13 5-5 8-9 10-12 3-3 6-7 9-11 4-5 6-8 7-9 10-13 18-22 22-26 8-8 13-19 17-31 3-13 6-25 9-36 2-11 5-19 10-24 19 0 31 4 37 13 6 9 9 23 9 41 0 12-4 27-14 46-9 20-13 35-13 46l100 0c10 0 18 4 26 11 7 7 11 16 11 25z m36 0c0-19-7-37-21-51-15-14-32-22-52-22l-50 0c9-19 14-37 14-55 0-22-4-40-10-53-7-13-17-23-29-29-13-6-28-9-44-9-9 0-18 4-25 11-7 6-12 14-16 23-4 9-6 18-7 26-1 8-3 16-5 24-2 8-5 14-9 18-9 10-19 22-30 37-20 25-33 39-40 44l-78 0c-10 0-19 3-26 11-7 7-10 15-10 25l0 183c0 10 3 19 10 26 7 7 16 11 26 11l82 0c5 0 18 4 40 11 24 9 45 15 64 19 18 4 37 6 57 6l32 0c26 0 48-7 64-22 17-15 25-36 25-62l0-1c11-15 17-32 17-51 0-4 0-8-1-12 7-13 11-27 11-42 0-6-1-13-3-19 10-14 14-30 14-47z"/>
<glyph glyph-name="thumbs-o-up" unicode="&#57421;" d="M110 128c0 5-2 9-6 13-3 3-8 5-13 5-5 0-9-2-12-5-4-4-6-8-6-13 0-5 2-9 6-13 3-3 7-5 12-5 5 0 10 2 13 5 4 4 6 8 6 13z m329 165c0 9-4 18-11 25-8 7-16 11-26 11l-100 0c0 11 4 26 13 46 10 19 14 34 14 46 0 18-3 32-9 41-6 9-18 13-37 13-5-5-8-13-10-24-3-11-6-23-9-36-4-12-9-23-17-31-4-4-12-13-22-26-1-1-3-4-7-9-3-4-6-8-9-11-2-3-5-7-10-12-4-5-8-10-11-13-3-3-7-7-11-10-4-4-8-6-11-8-4-2-8-2-11-2l-9 0 0-183 9 0c3 0 6-1 9-1 4-1 7-1 10-2 3-1 6-2 11-3 4-2 8-3 10-3 2-1 5-2 10-4 4-2 7-3 8-3 40-14 73-21 98-21l34 0c37 0 55 16 55 48 0 5 0 10-1 16 6 3 10 8 13 15 4 7 5 14 5 21 0 7-1 13-5 20 10 9 15 20 15 34 0 4-1 10-2 15-2 6-5 11-8 14 7 0 12 5 16 13 4 9 6 17 6 24z m36 0c0-17-4-33-14-47 2-6 3-13 3-19 0-15-4-29-11-42 1-4 1-8 1-12 0-19-6-36-17-51 0-26-8-47-24-62-17-16-38-23-65-23l-37 0c-18 0-36 2-54 6-18 4-39 11-62 19-22 7-35 11-40 11l-82 0c-10 0-19 4-26 11-7 7-10 16-10 26l0 183c0 10 3 18 10 25 7 8 16 11 26 11l78 0c7 5 20 19 40 44 11 15 21 27 30 37 5 5 8 13 10 24 2 12 5 24 9 37 4 12 10 22 18 30 7 7 16 11 25 11 16 0 31-3 44-9 12-6 22-16 29-29 6-13 10-31 10-53 0-18-5-36-14-55l50 0c20 0 37-8 52-22 14-14 21-32 21-51z"/>
<glyph glyph-name="betslip" unicode="&#57372;" d="M51 512l0-512 51 30 52-30 51 30 51-30 51 30 51-30 53 30 50-30 0 512z m39-38l332 0 0-128-332 0z"/>
<glyph glyph-name="streamingnegative" unicode="&#57356;" d="M59 59l0-59 394 0 0 59z m118 335l0-177 207 88z m-138 118c-21 0-39-18-39-39l0-335c0-22 18-40 39-40l434 0c21 0 39 18 39 40l0 335c0 21-18 39-39 39z m20-59l394 0 0-295-394 0z"/>
<glyph glyph-name="externallink" unicode="&#57422;" d="M252 512l98-98-127-126 65-65 127 126 97-97 0 260z m185-437l-362 0 0 362 88 0 0 75-163 0 0-512 512 0 0 163-75 0z"/>
<glyph glyph-name="share" unicode="&#57423;" d="M304 367l0-19 116 0 0-329-328 0 0 329 116 0 0 19-135 0 0-367 367 0 0 367z m-58 109l0-293 20 0 0 293 63-60 14 14-87 82-87-82 14-14z"/>
<glyph glyph-name="refresh" unicode="&#57424;" d="M256 64c-67 0-127 35-161 87l79 73-174 0 0-160 47 44c47-66 123-108 209-108 131 0 238 98 254 224l-65 0c-15-91-94-160-189-160z m210 338c-46 67-123 110-210 110-131 0-238-98-254-224l65 0c15 91 94 160 189 160 69 0 130-37 164-92l-68-68 160 0 0 160z"/>
<glyph glyph-name="popout" unicode="&#57425;" d="M67 335l-67 0 0-335 335 0 0 67-268 0z m54 177l0-391 391 0 0 391z m324-324l-257 0 0 257 257 0z"/>
<glyph glyph-name="horseracing-results" unicode="&#57426;" d="M477 291c0 122-99 221-221 221-122 0-221-99-221-221 0-109 77-199 180-218l0-73 82 0 0 73c103 19 180 109 180 218z m-221-139c-77 0-140 62-140 140 0 77 63 139 140 139 77 0 140-62 140-139 0-78-63-140-140-140z"/>
<glyph glyph-name="slider" unicode="&#57427;" d="M28 299c-15 0-28-13-28-29l0-28c0-16 13-29 28-29l122 0c-5 13-8 28-8 43 0 15 3 30 8 43l-122 0z m334-86l122 0c15 0 28 13 28 29l0 28c0 16-13 29-28 29l-122 0c3-9 6-19 7-29l115 0 0-28-115 0c-1-10-4-20-7-29z m-191 43c0-47 38-86 85-86 47 0 85 39 85 86 0 47-38 85-85 85-47 0-85-38-85-85z"/>
<glyph glyph-name="safari" unicode="&#57428;" d="M507 306c-24 119-131 206-251 206-107 0-204-68-241-168-37-102-5-218 78-286 83-68 203-77 295-22 92 55 140 165 119 270z m-422-196l19 16-5 6-19-15c-3 3-6 7-8 11l0 0 40 27-5 6-40-26c-2 3-4 8-6 12l20 11-3 7-21-11c-3 4-4 8-6 12l44 19-3 7-44-18c-2 4-4 8-5 13l23 7-3 7-22-6c-2 4-3 9-4 13l47 9-2 8-46-9c-1 5-2 9-3 14l24 2-1 8-23-2c-1 4-1 9-1 14l48 0 0 8-48 0c0 5 0 9 1 14l23-2 1 8-24 2c1 5 2 9 3 13l46-9 2 8-47 9c1 5 2 9 4 14l22-7 3 8-23 7c1 4 3 8 5 13l44-18 3 7-44 18c2 4 3 9 5 13l21-11 4 7-21 11c3 4 5 8 7 12l40-27 5 7-40 27c3 3 5 7 8 11l19-15 5 6-19 15c3 4 6 7 10 11l34-34 5 5-34 34c4 3 7 7 11 10l15-19 6 5-15 19c4 3 7 5 11 8l27-40 6 5-26 39c4 3 8 5 12 7l11-21 7 4-11 21c4 2 8 4 13 6l18-44 7 3-18 44c4 2 9 4 13 5l7-23 8 3-7 22c4 2 9 3 13 4l10-47 8 1-10 47c5 1 9 2 14 2l2-23 8 0-2 24c5 1 9 1 14 1l0-48 8 0 0 48c5 0 9 0 14-1l-2-24 8 0 2 23c5 0 9-1 14-2l-10-47 8-1 10 47c4-1 9-3 13-4 0 0-7-22-7-22l8-3 7 23c4-1 9-3 13-5l-18-44 7-3 18 44c5-2 9-4 13-6l-11-21 7-4 11 21c4-2 8-4 12-7l-26-40 6-4 27 40c4-3 8-5 11-8l-15-19 6-5 15 19c4-3 7-7 11-10l-13-12-175-117-117-175-12-13c-4 4-7 7-10 10z m395 142c0-5 0-10-1-14l-24 2 0-8 24-2c-1-5-2-9-3-14l-47 9-1-8 47-9c-1-4-2-9-4-13l-22 7-3-8 23-7c-1-5-3-9-5-13l-44 18-3-7 44-19c-2-4-3-8-6-12l-21 11-3-7 20-11c-2-4-4-9-7-13l-39 27-5-7 40-26c-3-4-5-8-8-11l0 0-19 15-5-6 19-16c-3-3-7-7-10-10l-34 34-5-6 34-34c-4-3-7-6-11-9l-15 19-6-6 15-18c-4-3-7-6-11-8l-27 39-7-4 27-40c-4-2-8-5-12-7l-11 21-7-4 11-21c-4-2-8-4-13-6l-18 45-7-4 18-44c-4-1-9-3-13-4l-7 22-8-2 7-23c-4-1-9-2-13-3l-10 47-8-2 10-46c-5-1-9-2-14-3l-3 24-8-1 3-24c-5 0-9 0-14 0l0 48-8 0 0-48c-5 0-9 0-14 0l2 24-8 1-2-24c-5 1-9 2-14 2l10 47-8 2-10-47c-4 1-9 2-13 3l7 23-8 2-7-22c-4 1-9 3-13 4l18 45-7 3-18-45c-5 2-9 4-13 6l11 21-7 4-11-21c-4 3-9 5-12 7l26 40-6 5-27-40c-4 2-8 5-11 8l15 18-6 6-15-19c-4 3-7 6-11 9l13 13 175 117 117 175 12 12c3-3 7-6 10-10l-19-15 5-6 19 15c3-4 5-7 8-11l-40-27 5-7 40 27c2-4 4-8 6-12l-20-11 3-7 21 11c3-4 4-9 6-13l-44-18 3-8 44 19c2-5 4-9 5-13l-23-7 3-8 22 7c2-5 3-9 4-14l-47-9 1-8 47 10c1-5 2-10 3-14l-24-3 0-8 24 3c1-5 1-10 1-14l-48 0 0-8z"/>
<glyph glyph-name="chrome" unicode="&#57429;" d="M129 289l-73 127c47 58 119 96 200 96 94 0 176-50 220-126l-209 0c-3 1-7 1-11 1-61 0-112-42-127-98z m219 61l146 0c12-29 18-61 18-94 0-140-113-254-253-256l105 181c14 22 23 47 23 75 0 37-15 70-39 94z m-185-94c0 51 42 93 93 93 51 0 93-42 93-93 0-51-42-93-93-93-51 0-93 42-93 93z m128-126l-73-127c-123 18-218 125-218 253 0 46 12 88 33 126l104-182c21-44 67-75 119-75 12 0 24 2 35 5z"/>
<glyph glyph-name="edge" unicode="&#57430;" d="M20 285c15 118 96 226 240 227 88-2 160-41 203-117 21-39 28-81 29-126l0-54-321 0c1-132 195-128 278-69l0-108c-49-30-159-56-245-22-73 27-125 104-125 177-2 95 48 158 125 194-16-20-29-42-35-81l181 0c0 0 11 108-103 108-107-3-183-66-227-129z"/>
<glyph glyph-name="ie" unicode="&#57431;" d="M386 225l125 0c1 8 1 17 1 26 0 43-11 82-31 116 20 55 20 101-8 128-26 26-96 22-175-13-6 0-11 1-17 1-109 0-200-75-225-175 34 43 70 75 118 98-5-4-30-30-34-34-126-126-166-291-123-333 32-33 91-27 159 6 31-16 67-25 105-25 101 0 187 65 219 156l-126 0c-17-32-51-53-89-53-39 0-73 21-90 53-7 15-12 31-12 48l0 1 203 0 0 0z m-203 61c3 51 46 92 98 92 51 0 94-41 97-92 0 0-195 0-195 0z m289 184c18-18 17-51 2-92-26 39-63 71-108 88 48 21 86 23 106 4z m-423-423c-22 22-16 70 13 127 19-51 54-94 99-121-50-23-91-27-112-6z"/>
<glyph glyph-name="opera" unicode="&#57432;" d="M280 70c20-14 81-37 147-5 52 47 85 115 85 191 0 76-33 144-85 191 0 0 0 0 0 0 0 0 0 0 0 0 0 0 0 0 0 0 0 0 0 0 0 0-45 40-105 65-170 65 0 0-1 0-1 0-141 0-256-115-256-256 0-137 108-249 244-256 4 0 8 0 12 0 66 0 125 25 171 65-30-20-65-31-103-31-61 0-115 30-152 78-28 33-47 83-48 138 0 0 0 12 0 12 1 55 19 105 48 138l0 0c37 48 91 78 152 78 38 0 73-11 102-31-65 32-126 9-146-5 64-14 113-92 113-186 0-94-49-172-113-186z"/>
<glyph glyph-name="firefox" unicode="&#57433;" d="M511 345l-6-38c0 0-8 70-18 97-16 40-23 40-24 40 11-27 9-42 9-42 0 0-19 51-69 68-55 18-85 13-88 12-1 0-1 0-2 0 1 0 1 0 1 0 0 0 0 0 0 0 0 0 61-11 72-26 0 0-26 0-51-7-2 0 94-12 114-108 0 0-11 22-24 26 9-26 7-76-1-100-1-3-2 14-19 21 6-37 0-95-25-112-2-1 16 58 3 35-71-109-155-50-193-24 19-4 56 0 72 13 0 0 0 0 0 0 18 12 29 21 38 19 9-3 16 7 8 15-7 9-25 20-49 14-17-4-38-23-70-4-25 14-27 27-27 35 0 3 1 6 2 8 3 8 11 11 16 12 8-1 15-3 23-7 0 2 0 5 0 9 0 2 0 6-1 11-1 5-2 10-4 15l0 0c0 0 0 0 1 0 0 0 0 0 0 0 0 0 0 0 0 0 0 1 0 1 0 1 0 2 6 6 13 11 6 5 13 9 19 13 5 3 9 5 9 6 1 0 1 0 1 0 1 1 1 1 1 1 0 0 0 0 0 0 2 2 7 6 7 15 0 0 0 0 0 0 0 0 0 0 0 0 0 1 0 1 0 1 0 0 0 0 0 0 0 1 1 1 1 1 0 0 0 0 0 0 0 1 0 2-1 3 0 1 0 1 0 1 0 0 0 0 0 1 0 0 0 0 0 0 0 0 0 0 0 0 0 0 0 0 0 0 0 0 0 0 0 0 0 0 0 0 0 0-1 2-4 3-18 3 0 0 0 0 0 0-5 0-12 0-22 0-17 0-26 16-29 23 4 22 16 38 35 49 0 0 0 0 0 0 4 2-45 0-68-28-20 5-37 4-52 1-3 0-6 0-11 1-10 9-24 26-25 46 0 0 0 0 0 0 0 0 0 0 0 0 0 0-30-23-26-87 0-1 0-2 0-3-8-11-12-20-12-22-8-15-15-37-21-71 0 0 4 13 13 28-7-19-11-48-9-93 0 0 1 10 4 24 2-27 11-61 34-101 45-77 113-116 189-122 13-1 27-1 40 0 2 0 3 1 4 1 16 1 31 3 47 7 212 51 189 308 189 308z"/>
<glyph glyph-name="repeat" unicode="&#57434;" d="M76 349c0 5 4 9 9 9l320 0 0-64 106 100-106 100 0-60-351 0c-30 0-54-24-54-54l0-217 76 74z m360-74l0-113c0-5-4-9-9-9l-320 0 0 65-107-100 107-100 0 58 350 0c30 0 55 25 55 55l0 218z"/>
</font>
</defs>
</svg>
